<svg width="28" height="20" viewBox="0 0 28 20" fill="none" xmlns="http://www.w3.org/2000/svg">
<path fill-rule="evenodd" clip-rule="evenodd" d="M3.63047 0.458333C1.94169 2.29906 0.699666 4.82639 0.242292 7.35283C-0.483763 11.3632 0.434323 15.3432 2.83018 18.5716C3.2178 19.0938 4.01809 20 4.09179 20C4.11422 20 4.38181 19.748 4.68638 19.44L5.24015 18.88L4.81177 18.3871C2.47183 15.6948 1.3767 12.341 1.6921 8.83333C1.9314 6.172 3.00421 3.69267 4.82096 1.60233L5.25848 1.09894L4.71942 0.549444C4.42289 0.247278 4.15126 0 4.11564 0C4.08008 0 3.86179 0.206278 3.63047 0.458333ZM23.2764 0.551167L22.7356 1.10233L23.1162 1.53728C24.0088 2.55739 24.5133 3.30878 25.0747 4.45383C26.7818 7.93594 26.7818 12.0641 25.0747 15.5462C24.5154 16.6869 24.0086 17.4426 23.1254 18.4523L22.7541 18.8768L23.3095 19.4384C23.6149 19.7473 23.8832 20 23.9056 20C23.9787 20 24.7752 19.0965 25.1686 18.5673C28.6664 13.8624 28.9485 7.43578 25.8752 2.47044C25.2695 1.49183 24.0657 0 23.8818 0C23.8462 0 23.5738 0.248 23.2764 0.551167ZM6.24998 2.84722C5.30717 3.85283 4.51568 5.21689 4.04994 6.63889C2.93484 10.0432 3.57369 13.7439 5.76657 16.5833C5.95537 16.8278 6.22454 17.1403 6.36471 17.2778L6.61966 17.5278L7.00569 17.1111C7.21802 16.8819 7.4652 16.6157 7.55498 16.5193L7.71818 16.3442L7.32569 15.883C4.42787 12.4778 4.42557 7.52494 7.32016 4.1235C7.53293 3.87344 7.70707 3.64911 7.70707 3.62506C7.70707 3.57544 6.65538 2.5 6.60691 2.5C6.58962 2.5 6.42899 2.65628 6.24998 2.84722ZM20.8227 3.04267C20.5299 3.34111 20.2903 3.60411 20.2903 3.62706C20.2903 3.65 20.4655 3.87456 20.6797 4.12606C23.5671 7.51722 23.5648 12.4855 20.6741 15.8804L20.2792 16.3442L20.4401 16.5193C20.5287 16.6157 20.7761 16.8819 20.99 17.1111L21.3789 17.5278L21.66 17.25C22.2666 16.6505 23.1091 15.3838 23.5445 14.4166C24.253 12.8424 24.5943 10.8996 24.4534 9.24083C24.2673 7.04706 23.5798 5.2035 22.323 3.52778C22.0581 3.17461 21.4447 2.5 21.3885 2.5C21.3702 2.5 21.1155 2.74422 20.8227 3.04267ZM8.7244 5.375C8.12068 6.10106 7.66095 6.92144 7.37788 7.77778C6.93758 9.10994 6.93758 10.8901 7.37788 12.2222C7.65991 13.0754 8.22036 14.0557 8.81659 14.7386L9.0491 15.0049L9.63707 14.4122L10.2251 13.8194L10.0164 13.5897C9.51452 13.0367 9.07504 12.2198 8.84433 11.4108C8.73518 11.0283 8.7192 10.8479 8.7192 10C8.7192 9.15206 8.73518 8.97172 8.84433 8.58917C9.07668 7.77456 9.51436 6.96344 10.0255 6.40039L10.2431 6.16061L9.67367 5.58028C9.3604 5.26111 9.08882 5 9.07017 5C9.05151 5 8.89592 5.16872 8.7244 5.375ZM18.3237 5.58028L17.7543 6.16061L17.9719 6.40039C18.4831 6.96344 18.9207 7.77456 19.1531 8.58917C19.2622 8.97172 19.2782 9.15206 19.2782 10C19.2782 10.8479 19.2622 11.0283 19.1531 11.4108C18.9224 12.2198 18.4829 13.0367 17.981 13.5897L17.7723 13.8194L18.3603 14.4122L18.9483 15.0049L19.1824 14.7386C19.3111 14.5921 19.5757 14.2332 19.7702 13.9409C20.5809 12.7233 20.9469 11.4973 20.9469 10C20.9469 8.55067 20.5934 7.32478 19.8378 6.15339C19.5467 5.702 18.9921 5 18.9267 5C18.9083 5 18.637 5.26111 18.3237 5.58028ZM13.3969 6.53478C12.1273 6.78389 11.1175 7.70078 10.6818 9C10.5366 9.43311 10.5366 10.5669 10.6818 11C11.0662 12.1462 11.8397 12.9462 12.9442 13.3398C13.4056 13.5043 14.1995 13.5399 14.7305 13.42C16.4064 13.0414 17.5306 11.5264 17.4295 9.78267C17.3456 8.33506 16.4539 7.16283 15.0532 6.65911C14.7407 6.54672 13.7248 6.47044 13.3969 6.53478Z" fill="#DB1212"/>
</svg>
