<svg width="2042" height="1854" viewBox="0 0 2042 1854" fill="none" xmlns="http://www.w3.org/2000/svg">
<path fill-rule="evenodd" clip-rule="evenodd" d="M984.671 3.16057C982.547 5.2845 981.509 17.2138 981.509 39.5256C981.509 61.8374 982.547 73.7668 984.671 75.8907C989.68 80.9001 1002.04 79.7327 1005.13 73.9565C1008.68 67.3291 1008.68 11.7222 1005.13 5.09477C1002.04 -0.681482 989.68 -1.84885 984.671 3.16057ZM1517.7 4.01699C1482.71 11.7064 1444.95 29.4541 1409.81 54.7252C1393.09 66.7467 1383.74 76.4362 1363.98 102.2L1339.17 134.57L1230.83 211.741C1074.13 323.358 1064.72 329.859 1028.37 351.504C965.75 388.791 923.51 407.572 835.255 437.367C761.817 462.159 728.124 476.065 668.423 506.213C527.854 577.209 452.171 657.711 423.594 766.632C414.44 801.527 412.2 867.166 418.812 906.909C431.735 984.619 465.123 1049.22 521.508 1105.6C577.93 1162.02 642.485 1195.37 720.339 1208.32C759.05 1214.76 824.1 1212.52 862.961 1203.41C912.282 1191.85 963.423 1169.02 999.491 1142.47C1008.37 1135.94 1017.32 1131.24 1019.38 1132.03C1025.22 1134.27 1061.44 1128.49 1079.68 1122.4C1155.17 1097.2 1217.87 1007.51 1242.85 889.019C1248.85 860.538 1248.89 858.989 1249.7 618.552L1250.51 376.727L1339.96 309.581C1424.8 245.897 1430 242.432 1440.83 242.432C1459.24 242.432 1478.91 235.233 1491.01 224.07C1508.92 207.548 1518.92 184.57 1525.16 145.58C1528.13 127.107 1530.88 111.55 1531.3 111.007C1531.71 110.464 1535.74 113.131 1540.26 116.936C1544.78 120.738 1551.65 124.543 1555.53 125.389C1559.4 126.235 1564.06 127.387 1565.89 127.951C1572.79 130.083 1596.7 123.568 1604.89 117.323C1623.71 102.967 1631.98 71.0341 1623.93 43.784C1619.65 29.3092 1597.82 7.47958 1583.35 3.20273C1569.54 -0.876484 1538.2 -0.486482 1517.7 4.01699ZM1578.7 30.6267C1601.44 41.4203 1607.76 72.4887 1591.22 92.1522C1585.47 98.9772 1582.68 100.134 1571.97 100.134C1556.97 100.134 1551.13 94.9982 1549.11 80.0384C1546.59 61.3526 1545.42 58.1456 1540.04 55.2654C1531.6 50.7514 1524.74 54.7436 1518.08 68.0485C1508.57 87.0453 1503.97 104.026 1499.41 137.026C1492.4 187.734 1477.21 210.484 1447.61 214.608C1436.43 216.165 1434.9 215.68 1429.16 208.768C1419.66 197.329 1376.64 136.025 1376.3 133.432C1375.47 127.287 1408.38 89.1745 1425.38 76.5864C1476.02 39.0908 1549.87 16.9529 1578.7 30.6267ZM579.569 58.0507C575.738 62.2828 575.25 64.8995 577.232 70.5677C581.822 83.7013 602.04 80.8421 602.04 67.0603C602.04 53.9873 588.25 48.4588 579.569 58.0507ZM526.146 111.202C520.897 116.451 522.325 128.583 528.586 131.935C540.221 138.159 553.017 125.11 546.753 113.41C543.522 107.37 531.287 106.061 526.146 111.202ZM634.189 111.202C628.94 116.451 630.368 128.583 636.629 131.935C648.264 138.159 661.06 125.11 654.796 113.41C651.566 107.37 639.33 106.061 634.189 111.202ZM876.628 111.202C871.618 116.211 872.786 128.573 878.562 131.664C881.366 133.163 896.861 134.391 912.993 134.391C929.126 134.391 944.621 133.163 947.425 131.664C953.201 128.573 954.369 116.211 949.359 111.202C944.977 106.819 881.01 106.819 876.628 111.202ZM1036.98 113.062C1033 120.504 1033.55 125.068 1039.03 130.03C1042.95 133.579 1049.75 134.391 1075.52 134.391C1103.99 134.391 1107.67 133.853 1112.02 129.042C1115.86 124.804 1116.34 122.201 1114.35 116.525L1111.83 109.357L1075.79 108.625C1042.27 107.945 1039.55 108.256 1036.98 113.062ZM1382.96 191.487C1395.51 209.121 1405.78 224.202 1405.78 225.003C1405.78 226.866 1343.77 273.746 1338.76 275.667C1336.17 276.66 1327.51 265.911 1310.89 241.088C1297.63 221.28 1287.17 204.736 1287.65 204.328C1298.97 194.588 1357.21 156.005 1358.43 157.43C1359.38 158.526 1370.41 173.852 1382.96 191.487ZM579.569 166.092C572.628 173.76 576.913 185.45 587.096 186.625C596.638 187.726 602.04 183.052 602.04 173.689C602.04 161.272 588.173 156.584 579.569 166.092ZM986.12 163.588C982.088 165.936 981.509 170.746 981.509 201.774C981.509 236.927 981.572 237.304 987.989 240.227C993.177 242.593 995.802 242.306 1001.16 238.793C1007.74 234.487 1007.86 233.802 1007.86 201.935C1007.86 173.826 1007.21 168.88 1003.04 165.104C997.56 160.142 992.774 159.715 986.12 163.588ZM1289.85 258.28C1303.32 278.592 1313.87 295.607 1313.29 296.094C1305.93 302.218 1250.8 342.568 1249.79 342.568C1247.3 342.568 1199.39 268.742 1200.9 267.234C1204.22 263.917 1262.28 221.701 1263.76 221.533C1264.64 221.433 1276.38 237.968 1289.85 258.28ZM755.408 232.419C750.631 237.196 751.537 249.79 756.858 252.522C759.395 253.827 766.706 255.56 773.106 256.375C808.726 260.915 828.957 302.192 811.385 334.475C793.864 366.669 753.15 372.598 727.278 346.723C717.852 337.3 715.266 332.396 711.87 317.505C707.822 299.755 704.755 295.254 696.657 295.175C687.879 295.09 682.88 304.69 684.516 318.496C690.564 369.565 744.478 402.913 791.982 384.97C823.781 372.962 844.478 343.793 844.478 310.993C844.478 301.338 842.491 287.596 840.062 280.452C834.056 262.791 810.943 239.678 793.282 233.673C778.105 228.511 759.917 227.91 755.408 232.419ZM1201.55 320.549C1214.59 340.265 1225.64 357.359 1226.09 358.54C1226.83 360.479 1168.7 405.811 1165.47 405.811C1164.72 405.811 1150.69 389.666 1134.29 369.934C1111.45 342.449 1105.34 333.55 1108.21 331.898C1110.27 330.712 1126.18 319.634 1143.57 307.281C1160.97 294.927 1175.79 284.792 1176.51 284.761C1177.24 284.729 1188.5 300.832 1201.55 320.549ZM447.151 325.59C437.158 332.586 439.885 339.996 459.681 359.638C476.781 376.606 478.578 377.705 485.374 375.331C490.863 373.412 492.874 370.798 493.464 364.814C494.136 357.978 491.654 354.347 475.932 339.169C465.858 329.445 456.579 321.487 455.312 321.487C454.044 321.487 450.371 323.334 447.151 325.59ZM1472.24 325.59C1462.25 332.586 1464.98 339.996 1484.77 359.638C1501.87 376.606 1503.67 377.705 1510.47 375.331C1515.96 373.412 1517.97 370.798 1518.56 364.814C1519.23 357.978 1516.75 354.347 1501.03 339.169C1490.95 329.445 1481.67 321.487 1480.4 321.487C1479.14 321.487 1475.46 323.334 1472.24 325.59ZM539.166 340.876C525.355 354.811 522.707 358.903 523.432 365.201C524.064 370.714 526.291 373.47 531.606 375.331C538.402 377.705 540.199 376.606 557.299 359.638C575.514 341.564 579.127 333.885 572.525 327.284C565.308 320.066 556.053 323.837 539.166 340.876ZM1564.26 340.876C1550.45 354.811 1547.8 358.903 1548.52 365.201C1549.16 370.714 1551.38 373.47 1556.7 375.331C1563.5 377.705 1565.29 376.606 1582.39 359.638C1600.61 341.564 1604.22 333.885 1597.62 327.284C1590.4 320.066 1581.15 323.837 1564.26 340.876ZM1113.85 387.495L1143.57 423.198L1142.1 643.104C1140.66 857.4 1140.47 863.661 1134.82 888.568C1101.07 1037.37 995.465 1145.68 852.384 1178.25C823.315 1184.86 765.781 1187.44 736.024 1183.47C606.912 1166.2 499.567 1078.06 458.437 955.535C447.894 924.13 443.559 899.636 442.017 862.733C439.105 793.06 453.393 739.416 489.49 684.508C530.341 622.371 589.986 575.323 693.966 523.228C741.123 499.599 776.891 485.198 842.225 463.534C930.251 434.347 1002.32 401.221 1061.88 362.563C1072.03 355.981 1081.18 350.863 1082.23 351.193C1083.27 351.522 1097.5 367.857 1113.85 387.495ZM1223.24 654.833C1222.31 853.742 1222.18 858.259 1216.38 884.091C1191.76 993.806 1140.55 1070.35 1075.33 1094.9C1065.7 1098.52 1056.03 1101.49 1053.86 1101.49C1051.53 1101.49 1057.92 1092.02 1069.41 1078.43C1115.64 1023.79 1141.93 971.694 1160.14 898.584L1167.03 870.915L1167.93 654.375L1168.84 437.834L1195.73 417.722L1222.63 397.614L1223.4 424.771C1223.83 439.707 1223.75 543.234 1223.24 654.833ZM459.009 421.029C448.081 432.042 441.292 441.072 441.292 444.596C441.292 449.884 449.983 458.514 455.312 458.514C456.579 458.514 465.802 450.612 475.806 440.954C494.732 422.682 497.823 415.285 489.857 407.316C482.734 400.196 477.274 402.623 459.009 421.029ZM527.809 406.47C518.391 414.057 519.843 418.916 536.816 436.598C557.589 458.238 560.978 460.125 569.276 454.688C580.112 447.589 577.495 440.042 557.497 420.737C538.798 402.686 534.858 400.791 527.809 406.47ZM1484.58 420.737C1464.91 439.726 1462.12 447.326 1472.24 454.411C1475.46 456.667 1479.14 458.514 1480.4 458.514C1481.67 458.514 1490.9 450.612 1500.9 440.954C1514.89 427.451 1519.09 421.688 1519.09 416.012C1519.09 408.934 1513.14 403.176 1505.83 403.176C1504.15 403.176 1494.58 411.079 1484.58 420.737ZM1552.22 407.316C1544.25 415.285 1547.34 422.682 1566.27 440.954C1576.27 450.612 1585.49 458.514 1586.76 458.514C1592.15 458.514 1600.78 449.858 1600.78 444.459C1600.78 437.552 1567.42 403.176 1560.72 403.176C1558.32 403.176 1554.5 405.039 1552.22 407.316ZM846.974 519.273C832.024 535.274 818.126 577.101 818.126 606.083C818.126 622.476 825.745 655.848 832.978 671.153C840.568 687.201 852.6 700.948 859.059 700.948C872.825 700.948 892.563 663.21 897.88 626.732C903.277 589.713 891.43 540.702 872.14 520.251C861.644 509.122 856.637 508.928 846.974 519.273ZM867.093 568.448C873.771 589.023 873.547 625.831 866.627 645.107C863.865 652.801 860.534 659.323 859.222 659.6C857.912 659.877 854.553 653.581 851.754 645.61C844.855 625.939 844.47 588.97 850.963 569.191C858.637 545.814 859.733 545.764 867.093 568.448ZM1397.51 596.881C1370.26 605.616 1347.77 627.456 1337.23 655.408C1329.03 677.134 1330.68 706.682 1341.29 728.188C1355.87 757.733 1387.87 779.223 1419.33 780.593C1432.84 781.181 1440.03 776.682 1440.03 767.641C1440.03 760.679 1429.7 753.651 1419.47 753.651C1406.11 753.651 1383.94 742.278 1374.06 730.357C1363.67 717.813 1357.26 695.949 1359.2 679.606C1361.86 657.123 1376.39 636.819 1397.87 625.551C1411.31 618.505 1440.58 618.919 1454.53 626.35C1476.57 638.097 1489.96 657.321 1492.19 680.41C1493.72 696.229 1500.32 703.022 1510.6 699.351C1517.51 696.89 1517.76 696.115 1517.55 678.449C1516.98 632.83 1478.71 595.837 1429.98 593.806C1417.08 593.268 1405.29 594.385 1397.51 596.881ZM674.982 619.266C654.451 621.841 652.356 630.956 666.768 654.989C678.927 675.269 691.362 687.97 713.556 702.777C734.414 716.696 749.859 723.044 773.127 727.263C801.469 732.401 818.155 726.725 818.1 711.96C818.068 703.362 807.683 680.463 798.141 667.953C774.095 636.427 717.264 613.962 674.982 619.266ZM1011.81 619.572C967.563 624.829 925.679 652.675 907.599 688.853C895.567 712.928 897.143 723.031 913.623 727.468C935.237 733.289 973.532 723.244 1002.96 704.037C1042.46 678.252 1073.02 631.14 1055.95 622.334C1048.92 618.705 1029.4 617.482 1011.81 619.572ZM720.803 649.787C747.013 657.437 773.826 676.528 783.041 694.097L787.049 701.739L774.669 700.042C754.23 697.241 729.789 683.751 709.108 663.856C690.503 645.955 690.398 645.776 698.404 645.694C702.852 645.647 712.932 647.489 720.803 649.787ZM1017.9 656.377C1000.63 677.872 953.965 703.104 936.352 700.474C930.963 699.67 931.116 699.093 939.727 687.772C955.797 666.649 994.107 646.034 1017.87 645.723L1026.55 645.61L1017.9 656.377ZM850.481 730.594C845.472 737.066 844.934 742.589 848.779 748.078C854.136 755.728 864.403 755.23 869.755 747.063C873.753 740.96 873.753 739.991 869.755 733.888C865.101 726.786 854.79 725.023 850.481 730.594ZM499.267 758.922C496.368 761.82 493.997 766.189 493.997 768.627C493.997 771.067 513.813 793.005 538.036 817.377C582.982 862.607 590.031 867.376 598.877 858.53C607.724 849.684 602.954 842.635 557.724 797.69C533.351 773.468 511.413 753.651 508.972 753.651C506.535 753.651 502.166 756.023 499.267 758.922ZM757.517 757.875C714.763 769.317 657.503 821.351 657.403 848.854C657.371 858.343 662.468 861.782 679.117 863.5C711.116 866.805 757.369 851.31 783.637 828.489C799.435 814.763 814.806 790.332 817.048 775.375C818.637 764.774 818.124 762.656 812.932 758.455C805.527 752.457 778.806 752.178 757.517 757.875ZM905.449 757.746C900.228 761.541 899.441 763.915 900.579 772.411C903.768 796.169 924.873 824.621 950.938 840.287C977.645 856.343 998.195 862.443 1026.55 862.744C1044.43 862.931 1053.11 861.951 1056.2 859.394C1076.32 842.724 1023.07 780.983 971.769 761.504C950.672 753.496 914.142 751.424 905.449 757.746ZM786.504 782.546C786.504 785.286 772.701 802.012 764.105 809.688C748.523 823.601 694.272 843.433 694.272 835.217C694.272 830.434 715.53 809.424 729.328 800.57C750.006 787.302 786.504 775.797 786.504 782.546ZM973.511 792.438C986.613 798.762 998.885 807.493 1010.25 818.579C1019.63 827.733 1026.78 835.723 1026.15 836.334C1023.23 839.133 995.233 832.158 978.581 824.481C965.236 818.331 956.198 811.714 945.799 800.48C937.901 791.95 931.44 783.75 931.44 782.256C931.44 777.354 953.138 782.606 973.511 792.438ZM846.578 789.885C826.195 811.635 814.577 859.879 820.511 898.129C825.969 933.295 843.595 967.304 857.399 969.296C875.874 971.96 899.633 918.878 899.773 874.631C899.828 856.578 891.87 824.437 883.094 807.266C870.116 781.871 859.032 776.595 846.578 789.885ZM871.386 859.207C874.375 879.343 871.012 906.087 863.296 923.521L858.677 933.964L854.281 922.983C843.195 895.272 843.179 857.136 854.247 829.478L858.692 818.365L863.72 829.891C866.485 836.232 869.934 849.423 871.386 859.207ZM1443.2 893.841C1438.81 898.223 1438.81 962.189 1443.2 966.571C1448.21 971.581 1460.57 970.413 1463.66 964.637C1467.58 957.314 1467.21 897.828 1463.22 893.841C1461.48 892.102 1456.98 890.679 1453.21 890.679C1449.44 890.679 1444.93 892.102 1443.2 893.841ZM552.498 920.193C543.412 929.279 548.013 935.45 609.287 996.354C675.393 1062.06 682.232 1066.87 717.177 1072.23C727.599 1073.83 747.165 1075.17 760.658 1075.21C817.842 1075.37 851.701 1082.12 871.676 1097.36C883.801 1106.61 894.695 1105.88 898.297 1095.58C900.46 1089.39 899.77 1087.23 893.543 1080.74C873.439 1059.75 845.256 1052.32 772.334 1048.75C721.543 1046.26 704.802 1043.82 692.019 1037.03C688.184 1035 658.971 1007.16 627.098 975.18C567.856 915.737 561.579 911.112 552.498 920.193ZM1339.9 999.479C1331.95 1003.48 1329.89 1014.69 1335.99 1020.79C1339.45 1024.25 1346.11 1025.07 1370.56 1025.07C1406.07 1025.07 1411.05 1023.27 1411.05 1010.42C1411.05 1002.97 1409.76 1000.74 1404.29 998.654C1394.44 994.912 1347.78 995.51 1339.9 999.479ZM1503.28 997.914C1498.26 999.708 1492.74 1006.6 1492.74 1011.08C1492.74 1012.98 1495.11 1016.9 1498.01 1019.8C1502.66 1024.45 1506.79 1025.07 1533.29 1025.07C1558.46 1025.07 1564.27 1024.29 1569.26 1020.25C1577 1013.98 1574.68 1002.32 1564.96 998.628C1558.02 995.987 1510.21 995.434 1503.28 997.914ZM1444.65 1054.27C1440.63 1056.61 1440.04 1061.3 1440.07 1090.42C1440.1 1108.83 1440.98 1125.16 1442.05 1126.72C1445.79 1132.18 1453.89 1133.27 1460.17 1129.16C1466.14 1125.24 1466.39 1123.83 1466.39 1092.62C1466.39 1064.51 1465.74 1059.56 1461.57 1055.78C1456.08 1050.82 1451.3 1050.4 1444.65 1054.27Z" fill="white"/>
<path d="M67.116 1545.52C71.5587 1551.55 79.8093 1559.95 91.868 1570.74C105.196 1582.49 114.081 1591.53 118.524 1597.88C126.775 1608.98 130.9 1619.61 130.9 1629.77V1725.44C130.9 1726.4 130.9 1727.82 130.9 1729.73C131.217 1731.63 131.376 1733.06 131.376 1734.01C131.376 1734.96 131.376 1736.23 131.376 1737.82C131.693 1739.09 131.852 1740.2 131.852 1741.15C132.169 1741.79 132.328 1742.74 132.328 1744.01C132.645 1744.96 132.963 1745.75 133.28 1746.39C133.597 1747.02 133.915 1747.66 134.232 1748.29C134.549 1748.93 134.867 1749.56 135.184 1750.2C135.501 1750.51 135.977 1750.67 136.612 1750.67C142.641 1753.21 145.656 1755.59 145.656 1757.81C145.656 1761.94 143.593 1764 139.468 1764H6.188C2.06267 1764 0 1761.94 0 1757.81C0 1754 1.904 1751.62 5.712 1750.67C11.7413 1748.77 14.756 1740.36 14.756 1725.44V1475.54C14.756 1458.41 20.6267 1443.97 32.368 1432.23C44.4267 1420.17 59.024 1414.14 76.16 1414.14C92.9787 1414.14 107.417 1420.17 119.476 1432.23C131.535 1444.29 137.564 1458.88 137.564 1476.02C137.564 1490.93 133.28 1502.04 124.712 1509.34C121.856 1511.88 112.019 1516.96 95.2 1524.57C82.1893 1530.28 72.828 1537.27 67.116 1545.52ZM59.024 1535.52L78.064 1519.34C85.3627 1512.04 89.012 1504.42 89.012 1496.49V1444.6C89.012 1433.5 82.348 1427.94 69.02 1427.94C58.548 1427.94 53.312 1433.5 53.312 1444.6V1486.97C53.312 1512.99 55.216 1529.17 59.024 1535.52ZM53.788 1725.44C53.788 1734.96 54.5813 1741.63 56.168 1745.44C58.7067 1749.88 64.26 1752.1 72.828 1752.1C81.396 1752.1 86.9493 1749.88 89.488 1745.44C91.0747 1741.63 91.868 1734.96 91.868 1725.44V1629.77C91.868 1611.68 88.8533 1597.24 82.824 1586.45L53.788 1553.61V1725.44ZM198.098 1380.34C198.098 1365.43 205.555 1357.97 220.47 1357.97C235.384 1357.97 242.842 1365.43 242.842 1380.34C242.842 1395.58 235.384 1403.19 220.47 1403.19C205.555 1403.19 198.098 1395.58 198.098 1380.34ZM248.554 1420.33C252.362 1420.33 254.266 1422.87 254.266 1427.94C254.266 1430.48 252.52 1432.23 249.03 1433.18C243.318 1434.77 240.462 1443.33 240.462 1458.88V1725.44C240.462 1740.99 243.318 1749.4 249.03 1750.67C252.52 1751.62 254.266 1753.53 254.266 1756.38C254.266 1761.46 252.362 1764 248.554 1764H192.862C188.419 1764 186.198 1761.94 186.198 1757.81C186.198 1754 188.26 1751.62 192.386 1750.67C198.098 1749.4 200.954 1740.99 200.954 1725.44V1458.88C200.954 1443.33 198.098 1434.77 192.386 1433.18C188.26 1432.23 186.198 1430.01 186.198 1426.52C186.198 1422.39 188.419 1420.33 192.862 1420.33H248.554ZM437.567 1420.33C442.009 1420.33 444.231 1422.39 444.231 1426.52C444.231 1430.01 442.327 1432.23 438.519 1433.18C433.759 1434.45 430.903 1443.02 429.951 1458.88V1725.92C429.951 1741.79 432.807 1750.35 438.519 1751.62C442.327 1752.58 444.231 1754.96 444.231 1758.76C444.231 1762.25 442.009 1764 437.567 1764H382.351C377.908 1764 375.687 1762.25 375.687 1758.76C375.687 1754.96 377.591 1752.58 381.399 1751.62C387.745 1750.04 390.919 1741.47 390.919 1725.92V1511.72C362.359 1552.97 348.079 1589.31 348.079 1620.72V1725.44C348.079 1741.31 351.093 1750.04 357.123 1751.62C360.931 1752.58 362.835 1754.96 362.835 1758.76C362.835 1762.25 360.772 1764 356.647 1764H300.955C296.829 1764 294.767 1761.62 294.767 1756.86C294.767 1754.32 296.671 1752.58 300.479 1751.62C306.191 1749.72 309.047 1740.99 309.047 1725.44V1620.72C309.047 1615.65 309.364 1610.89 309.999 1606.44C310.951 1601.68 311.744 1597.56 312.379 1594.07C313.331 1590.58 314.917 1586.45 317.139 1581.69C319.677 1576.93 321.581 1573.44 322.851 1571.22C324.12 1568.68 326.659 1564.87 330.467 1559.8C334.592 1554.4 337.289 1550.75 338.559 1548.85C340.145 1546.94 343.477 1542.82 348.555 1536.47C353.949 1530.13 357.599 1525.84 359.503 1523.62C368.705 1512.51 374.893 1504.74 378.067 1500.3C381.24 1495.54 384.096 1489.67 386.635 1482.68C389.491 1475.7 390.919 1467.93 390.919 1459.36C390.919 1452.06 386 1445.56 376.163 1439.84C366.643 1434.13 357.916 1431.28 349.983 1431.28C341.732 1431.28 335.068 1433.81 329.991 1438.89C332.847 1437.62 335.703 1436.99 338.559 1436.99C343.953 1436.99 348.396 1439.37 351.887 1444.13C355.695 1448.89 357.599 1454.28 357.599 1460.31C357.599 1475.54 350.141 1483.16 335.227 1483.16C318.408 1483.16 309.999 1473.32 309.999 1453.65C309.999 1442.86 314.441 1433.66 323.327 1426.04C332.212 1418.11 342.208 1414.14 353.315 1414.14C367.912 1414.14 380.447 1418.9 390.919 1428.42V1420.33H437.567ZM576.551 1629.77C576.551 1616.76 574.806 1607.55 571.315 1602.16C570.363 1600.89 565.603 1597.4 557.035 1591.69C548.785 1585.66 542.597 1580.11 538.471 1575.03V1725.92C538.471 1743.06 541.962 1751.62 548.943 1751.62H567.507C573.537 1751.62 576.551 1743.06 576.551 1725.92V1629.77ZM630.339 1758.29C630.339 1762.1 628.277 1764 624.151 1764H490.871C486.746 1764 484.683 1761.62 484.683 1756.86C484.683 1753.69 486.587 1751.62 490.395 1750.67C496.107 1749.4 498.963 1741.15 498.963 1725.92V1458.41C498.963 1442.54 496.107 1433.97 490.395 1432.7C486.587 1432.07 484.683 1430.64 484.683 1428.42C484.683 1423.03 486.746 1420.33 490.871 1420.33H546.563C550.689 1420.33 552.751 1422.23 552.751 1426.04C552.751 1429.85 550.847 1432.07 547.039 1432.7C541.327 1433.97 538.471 1442.54 538.471 1458.41V1505.53C546.722 1497.28 556.242 1493.16 567.031 1493.16C579.725 1493.16 589.879 1496.49 597.495 1503.15C605.429 1509.5 609.395 1518.38 609.395 1529.81C609.395 1538.06 606.857 1545.04 601.779 1550.75C597.019 1556.46 590.831 1559.32 583.215 1559.32C568.301 1559.32 560.843 1552.02 560.843 1537.42C560.843 1530.76 562.747 1525.37 566.555 1521.24C570.363 1516.8 574.647 1514.58 579.407 1514.58C581.946 1514.58 583.85 1514.89 585.119 1515.53C586.706 1515.85 588.293 1516.64 589.879 1517.91C591.783 1518.86 593.211 1519.65 594.163 1520.29C591.942 1509.5 583.215 1504.1 567.983 1504.1C549.261 1504.1 539.899 1515.69 539.899 1538.85C539.899 1544.56 540.851 1549.96 542.755 1555.04C544.659 1559.8 546.405 1563.6 547.991 1566.46C549.578 1569.32 553.069 1572.49 558.463 1575.98C563.858 1579.15 567.349 1581.22 568.935 1582.17C570.522 1583.12 575.123 1585.34 582.739 1588.83C590.673 1592.01 595.115 1593.75 596.067 1594.07C609.078 1601.68 615.583 1613.58 615.583 1629.77V1725.92C615.583 1741.15 618.439 1749.4 624.151 1750.67C628.277 1751.62 630.339 1754.16 630.339 1758.29ZM724.669 1553.13H762.749V1458.41C762.749 1442.54 760.21 1434.13 755.133 1433.18C750.373 1432.23 747.993 1429.85 747.993 1426.04C747.993 1422.23 750.056 1420.33 754.181 1420.33H810.349C814.474 1420.33 816.537 1422.23 816.537 1426.04C816.537 1430.17 814.474 1432.39 810.349 1432.7C804.637 1433.97 801.781 1442.54 801.781 1458.41V1725.92C801.781 1741.15 804.637 1749.4 810.349 1750.67C814.474 1751.62 816.537 1754.16 816.537 1758.29C816.537 1762.1 814.474 1764 810.349 1764H754.181C750.056 1764 747.993 1762.1 747.993 1758.29C747.993 1754.8 750.056 1752.42 754.181 1751.15C757.989 1749.24 760.369 1746.71 761.321 1743.53C762.273 1740.36 762.749 1734.49 762.749 1725.92V1565.51H724.669V1725.92C724.669 1741.15 727.525 1749.4 733.237 1750.67C737.045 1751.62 738.949 1754.16 738.949 1758.29C738.949 1762.1 736.886 1764 732.761 1764H677.069C672.944 1764 670.881 1761.62 670.881 1756.86C670.881 1753.69 672.785 1751.62 676.593 1750.67C681.67 1749.4 684.685 1741.15 685.637 1725.92V1458.41C685.637 1442.54 682.622 1433.97 676.593 1432.7C672.785 1432.07 670.881 1430.32 670.881 1427.47C670.881 1422.71 672.944 1420.33 677.069 1420.33H732.761C736.886 1420.33 738.949 1422.23 738.949 1426.04C738.949 1429.85 737.045 1432.07 733.237 1432.7C727.525 1433.97 724.669 1442.54 724.669 1458.41V1553.13ZM863.267 1764C859.142 1764 857.079 1761.46 857.079 1756.38C857.079 1754.16 858.983 1752.58 862.791 1751.62C868.82 1750.04 871.835 1741.31 871.835 1725.44V1458.88C871.835 1443.33 868.82 1434.77 862.791 1433.18C858.983 1432.23 857.079 1430.17 857.079 1426.99C857.079 1422.55 859.142 1420.33 863.267 1420.33H996.547C1000.99 1420.33 1003.21 1422.07 1003.21 1425.56C1003.21 1430.96 1000.35 1434.13 994.643 1435.08C981.315 1436.99 970.526 1442.54 962.275 1451.74C953.072 1462.22 948.471 1474.12 948.471 1487.44C948.471 1498.55 955.77 1504.26 970.367 1504.58C960.212 1503.95 955.135 1497.28 955.135 1484.59C955.135 1469.99 961.799 1462.69 975.127 1462.69C993.215 1462.69 1002.26 1472.05 1002.26 1490.78C1002.26 1498.71 999.244 1505.06 993.215 1509.82C987.186 1514.58 979.728 1516.96 970.843 1516.96C961.323 1516.96 953.231 1513.47 946.567 1506.48C940.22 1499.5 937.047 1491.09 937.047 1481.26C937.047 1476.18 938.634 1469.51 941.807 1461.26C945.298 1452.38 947.043 1445.56 947.043 1440.8C947.043 1439.84 946.25 1438.42 944.663 1436.51C943.394 1434.29 941.966 1433.18 940.379 1433.18H919.435C913.723 1433.18 910.867 1441.75 910.867 1458.88V1553.61C923.878 1539.33 937.999 1532.19 953.231 1532.19C969.415 1532.19 980.204 1540.6 985.599 1557.42C986.234 1559.32 986.868 1562.65 987.503 1567.41C988.138 1571.85 988.772 1575.66 989.407 1578.84C990.359 1582.01 991.47 1584.07 992.739 1585.02L997.975 1586.45C999.879 1587.09 1000.83 1588.2 1000.83 1589.78C1000.83 1592.64 998.61 1594.07 994.167 1594.07H941.807C937.364 1594.07 935.143 1592.64 935.143 1589.78C935.143 1588.2 937.364 1586.61 941.807 1585.02C946.25 1583.12 948.471 1580.74 948.471 1577.88C948.471 1568.36 944.346 1563.6 936.095 1563.6C927.21 1563.6 918.8 1567.57 910.867 1575.5V1725.44C910.867 1743.21 914.358 1752.1 921.339 1752.1H941.807C952.279 1751.47 961.482 1747.5 969.415 1740.2C977.666 1732.58 981.791 1723.86 981.791 1714.02C981.791 1699.74 976.238 1692.6 965.131 1692.6L959.895 1693.08C969.415 1694.03 974.175 1700.85 974.175 1713.54C974.175 1727.19 967.987 1734.01 955.611 1734.01C938.475 1734.01 929.907 1724.81 929.907 1706.4C929.907 1698.15 932.922 1691.65 938.951 1686.89C945.298 1681.81 952.914 1679.27 961.799 1679.27C971.002 1679.27 978.776 1682.92 985.123 1690.22C991.47 1697.2 994.643 1705.61 994.643 1715.45C994.643 1731.31 993.532 1747.5 991.311 1764H863.267ZM1262.71 1444.6C1262.71 1433.5 1256.68 1427.94 1244.62 1427.94C1232.88 1427.94 1227.01 1433.5 1227.01 1444.6V1611.2C1232.72 1605.81 1239.54 1600.89 1247.47 1596.45C1254.45 1592.64 1258.74 1588.36 1260.33 1583.6C1261.91 1578.84 1262.71 1570.74 1262.71 1559.32V1444.6ZM1306.97 1559.32C1306.97 1575.19 1300.31 1586.29 1286.98 1592.64C1284.76 1593.59 1280.16 1595.65 1273.18 1598.83C1266.51 1601.68 1262.07 1603.75 1259.85 1605.02C1257.95 1605.97 1254.45 1608.03 1249.38 1611.2C1244.62 1614.06 1241.44 1616.76 1239.86 1619.3C1238.27 1621.52 1236.21 1624.69 1233.67 1628.82C1231.13 1632.94 1229.39 1637.54 1228.43 1642.62C1227.8 1647.7 1227.48 1653.41 1227.48 1659.76C1227.48 1666.74 1230.18 1672.45 1235.57 1676.89C1241.29 1681.33 1247.79 1683.56 1255.09 1683.56C1270.96 1683.56 1279.52 1678.64 1280.79 1668.8C1279.21 1671.66 1277.62 1673.56 1276.03 1674.51C1274.76 1675.46 1272.38 1675.94 1268.89 1675.94C1264.13 1675.94 1259.37 1673.72 1254.61 1669.28C1250.17 1664.52 1247.95 1658.8 1247.95 1652.14C1247.95 1645.48 1250.01 1640.08 1254.14 1635.96C1258.26 1631.83 1263.66 1629.77 1270.32 1629.77C1277.94 1629.77 1284.13 1632.62 1288.89 1638.34C1293.65 1644.05 1296.03 1650.87 1296.03 1658.8C1296.03 1669.91 1291.9 1678.95 1283.65 1685.94C1275.72 1692.92 1265.72 1696.41 1253.66 1696.41C1243.82 1696.41 1235.1 1692.6 1227.48 1684.98V1725.44C1227.48 1741.63 1230.34 1750.35 1236.05 1751.62C1239.86 1752.58 1241.76 1754.96 1241.76 1758.76C1241.76 1762.25 1239.7 1764 1235.57 1764H1179.88C1175.76 1764 1173.69 1761.62 1173.69 1756.86C1173.69 1754.32 1175.6 1752.58 1179.41 1751.62C1185.12 1749.72 1187.97 1740.99 1187.97 1725.44V1475.54C1187.97 1458.73 1194 1444.29 1206.06 1432.23C1218.12 1420.17 1232.72 1414.14 1249.85 1414.14C1266.67 1414.14 1280.32 1419.53 1290.79 1430.32C1301.58 1441.11 1306.97 1454.92 1306.97 1471.74V1559.32ZM1490.14 1420.33C1494.58 1420.33 1496.8 1422.39 1496.8 1426.52C1496.8 1430.01 1494.9 1432.23 1491.09 1433.18C1485.38 1434.77 1482.52 1443.33 1482.52 1458.88V1725.44C1482.52 1740.99 1485.38 1749.4 1491.09 1750.67C1494.9 1751.62 1496.8 1754 1496.8 1757.81C1496.8 1761.94 1494.58 1764 1490.14 1764H1434.92C1430.48 1764 1428.26 1761.94 1428.26 1757.81C1428.26 1754.32 1430.32 1751.94 1434.45 1750.67C1440.48 1748.13 1443.49 1739.72 1443.49 1725.44V1686.89H1400.65V1725.44C1400.65 1740.68 1403.67 1749.09 1409.7 1750.67C1413.5 1751.62 1415.41 1754 1415.41 1757.81C1415.41 1761.94 1413.35 1764 1409.22 1764H1353.53C1349.4 1764 1347.34 1761.3 1347.34 1755.91C1347.34 1753.37 1349.24 1751.62 1353.05 1750.67C1358.76 1749.4 1361.62 1740.99 1361.62 1725.44V1641.67C1361.62 1616.6 1364.16 1598.03 1369.24 1585.98C1375.27 1571.38 1389.39 1550.59 1411.6 1523.62C1423.98 1509.02 1432.39 1497.6 1436.83 1489.35C1441.27 1481.1 1443.49 1470.94 1443.49 1458.88C1443.49 1449.68 1439.53 1442.7 1431.59 1437.94C1423.66 1432.86 1414.14 1430.32 1403.03 1430.32C1395.1 1430.32 1388.44 1433.18 1383.04 1438.89C1385.9 1437.62 1388.75 1436.99 1391.61 1436.99C1397 1436.99 1401.45 1439.21 1404.94 1443.65C1408.43 1448.09 1410.17 1453.33 1410.17 1459.36C1410.17 1475.23 1402.71 1483.16 1387.8 1483.16C1370.98 1483.16 1362.57 1473.32 1362.57 1453.65C1362.57 1442.86 1367.01 1433.66 1375.9 1426.04C1384.79 1418.11 1394.94 1414.14 1406.36 1414.14C1420.64 1414.14 1433.02 1418.74 1443.49 1427.94V1420.33H1490.14ZM1443.49 1674.51V1511.24C1414.93 1552.81 1400.65 1589.15 1400.65 1620.25V1674.51H1443.49ZM1745.27 1757.34C1745.27 1761.46 1743.21 1763.68 1739.08 1764C1727.66 1765.27 1718.61 1772.57 1711.95 1785.9C1705.28 1799.54 1701.95 1813.03 1701.95 1826.36C1701.95 1830.48 1700.21 1832.54 1696.72 1832.54C1693.23 1832.54 1691.48 1830.48 1691.48 1826.36V1764H1591.04V1826.36C1591.04 1830.48 1589.3 1832.54 1585.81 1832.54C1582.64 1832.54 1580.89 1830.48 1580.57 1826.36C1578.99 1812.08 1575.02 1798.43 1568.67 1785.42C1562.33 1772.73 1553.76 1765.59 1542.97 1764C1539.16 1763.37 1537.26 1761.78 1537.26 1759.24C1537.26 1754.48 1540.11 1752.1 1545.82 1752.1H1567.24C1572.32 1752.1 1576.13 1749.56 1578.67 1744.48C1581.52 1739.09 1582.95 1732.74 1582.95 1725.44V1621.68C1582.95 1604.86 1588.35 1587.72 1599.14 1570.27C1603.26 1563.92 1614.69 1548.85 1633.41 1525.05C1634.36 1523.78 1636.74 1520.92 1640.55 1516.48C1644.36 1511.72 1646.9 1508.55 1648.16 1506.96C1649.43 1505.06 1651.34 1502.04 1653.88 1497.92C1656.73 1493.47 1658.64 1489.67 1659.59 1486.49C1660.86 1483.32 1661.97 1479.35 1662.92 1474.59C1663.87 1469.83 1664.35 1464.91 1664.35 1459.84C1664.35 1452.54 1659.59 1446.03 1650.07 1440.32C1640.55 1434.29 1631.82 1431.28 1623.89 1431.28C1616.27 1431.28 1609.77 1433.97 1604.37 1439.37C1607.55 1437.78 1610.4 1436.99 1612.94 1436.99C1618.34 1436.99 1622.78 1439.53 1626.27 1444.6C1630.08 1449.36 1631.98 1454.76 1631.98 1460.79C1631.98 1467.45 1629.92 1473.01 1625.79 1477.45C1621.67 1481.57 1616.27 1483.64 1609.61 1483.64C1592.79 1483.64 1584.38 1473.96 1584.38 1454.6C1584.38 1443.49 1588.82 1433.97 1597.71 1426.04C1606.59 1418.11 1616.75 1414.14 1628.17 1414.14C1640.87 1414.14 1652.92 1418.9 1664.35 1428.42V1420.33H1711.95C1716.07 1420.33 1718.14 1422.23 1718.14 1426.04C1718.14 1430.48 1716.07 1432.86 1711.95 1433.18C1706.24 1434.77 1703.38 1443.33 1703.38 1458.88V1725.44C1703.38 1743.21 1706.24 1752.1 1711.95 1752.1H1737.65C1742.73 1753.05 1745.27 1754.8 1745.27 1757.34ZM1653.88 1752.1C1660.86 1752.1 1664.35 1743.21 1664.35 1725.44V1512.67C1636.11 1553.29 1621.98 1589.63 1621.98 1621.68V1725.44C1621.98 1743.21 1625.48 1752.1 1632.46 1752.1H1653.88ZM1797.64 1380.34C1797.64 1365.43 1805.1 1357.97 1820.02 1357.97C1834.93 1357.97 1842.39 1365.43 1842.39 1380.34C1842.39 1395.58 1834.93 1403.19 1820.02 1403.19C1805.1 1403.19 1797.64 1395.58 1797.64 1380.34ZM1848.1 1420.33C1851.91 1420.33 1853.81 1422.87 1853.81 1427.94C1853.81 1430.48 1852.07 1432.23 1848.58 1433.18C1842.86 1434.77 1840.01 1443.33 1840.01 1458.88V1725.44C1840.01 1740.99 1842.86 1749.4 1848.58 1750.67C1852.07 1751.62 1853.81 1753.53 1853.81 1756.38C1853.81 1761.46 1851.91 1764 1848.1 1764H1792.41C1787.97 1764 1785.74 1761.94 1785.74 1757.81C1785.74 1754 1787.81 1751.62 1791.93 1750.67C1797.64 1749.4 1800.5 1740.99 1800.5 1725.44V1458.88C1800.5 1443.33 1797.64 1434.77 1791.93 1433.18C1787.81 1432.23 1785.74 1430.01 1785.74 1426.52C1785.74 1422.39 1787.97 1420.33 1792.41 1420.33H1848.1ZM1992.37 1414.14L1992.84 1416.04L1991.42 1422.71C1990.46 1427.15 1989.99 1431.28 1989.99 1435.08C1991.26 1451.27 1998.87 1480.62 2012.84 1523.14C2025.53 1562.18 2031.88 1590.1 2031.88 1606.92C2031.88 1639.61 2024.1 1670.55 2008.55 1699.74C1990.15 1735.92 1965.55 1758.13 1934.77 1766.38V1754C1934.77 1738.14 1927.95 1708.63 1914.3 1665.47C1900.98 1621.68 1894.31 1587.25 1894.31 1562.18C1894.31 1531.71 1902.4 1502.2 1918.59 1473.64C1937.63 1440.64 1962.22 1420.8 1992.37 1414.14ZM1925.25 1527.9C1925.25 1556.46 1934.3 1598.67 1952.38 1654.52C1958.1 1672.93 1963.02 1699.9 1967.14 1735.44C1974.12 1728.14 1980.63 1715.77 1986.66 1698.31C1993 1680.54 1996.18 1666.26 1996.18 1655.47C1996.18 1625.01 1986.02 1582.64 1965.71 1528.38C1957.78 1507.75 1953.81 1483.79 1953.81 1456.5V1453.17C1946.51 1457.93 1939.69 1469.83 1933.34 1488.87C1927.95 1506.01 1925.25 1519.02 1925.25 1527.9Z" fill="white"/>
</svg>
