<svg width="172" height="38" viewBox="0 0 172 38" fill="none" xmlns="http://www.w3.org/2000/svg">
<path fill-rule="evenodd" clip-rule="evenodd" d="M17.861 0.0990937C17.7944 0.165686 17.7618 0.539707 17.7618 1.23925C17.7618 1.9388 17.7944 2.31282 17.861 2.37941C18.018 2.53647 18.4056 2.49987 18.5025 2.31877C18.6137 2.11098 18.6137 0.367527 18.5025 0.159737C18.4056 -0.0213666 18.018 -0.0579673 17.861 0.0990937ZM34.573 0.125945C33.476 0.367031 32.292 0.923478 31.1903 1.71581C30.6663 2.09272 30.373 2.39651 29.7536 3.20429L28.9755 4.2192L25.5788 6.63873C20.6658 10.1383 20.3706 10.3421 19.2309 11.0207C17.2677 12.1898 15.9434 12.7787 13.1763 13.7128C10.8738 14.4901 9.8174 14.9261 7.94561 15.8714C3.53831 18.0973 1.16542 20.6213 0.269464 24.0363C-0.0175639 25.1304 -0.0877925 27.1884 0.119506 28.4344C0.524683 30.8709 1.5715 32.8963 3.33936 34.6641C5.10838 36.4331 7.13236 37.4787 9.57334 37.8846C10.7871 38.0865 12.8266 38.0162 14.045 37.7306C15.5913 37.3682 17.1948 36.6525 18.3256 35.82C18.6039 35.6151 18.8845 35.4678 18.9492 35.4927C19.1324 35.563 20.2679 35.3816 20.8397 35.1907C23.2065 34.4005 25.1726 31.5885 25.9557 27.8735C26.1439 26.9806 26.1451 26.932 26.1703 19.3936L26.1958 11.8116L29.0004 9.70634C31.6603 7.70965 31.8235 7.60101 32.163 7.60101C32.7402 7.60101 33.357 7.37529 33.7363 7.02531C34.2977 6.50728 34.6112 5.78683 34.8071 4.56439C34.9 3.98522 34.9865 3.49743 34.9994 3.48041C35.0123 3.46339 35.1388 3.547 35.2805 3.6663C35.4222 3.78552 35.6376 3.90483 35.7591 3.93135C35.8805 3.95787 36.0268 3.99398 36.084 4.01166C36.3005 4.0785 37.05 3.87426 37.3067 3.67845C37.8969 3.22833 38.1561 2.22714 37.9037 1.37277C37.7696 0.918934 37.0852 0.234508 36.6313 0.100416C36.1985 -0.0274805 35.2159 -0.0152527 34.573 0.125945ZM36.4855 0.960244C37.1986 1.29866 37.3969 2.27275 36.8781 2.88926C36.698 3.10325 36.6106 3.13952 36.2746 3.13952C35.8044 3.13952 35.6211 2.97849 35.5579 2.50946C35.479 1.9236 35.4421 1.82305 35.2735 1.73274C35.009 1.59121 34.794 1.71638 34.5851 2.13353C34.2868 2.72914 34.1427 3.26155 33.9996 4.2962C33.7798 5.88606 33.3036 6.59932 32.3756 6.72862C32.0251 6.77745 31.9771 6.76225 31.7972 6.54554C31.4993 6.18688 30.1505 4.2648 30.1396 4.18351C30.1138 3.99084 31.1457 2.7959 31.6786 2.40122C33.2663 1.22562 35.5819 0.531528 36.4855 0.960244ZM5.15977 1.82007C5.03963 1.95276 5.02435 2.0348 5.08648 2.21252C5.23041 2.6243 5.86428 2.53465 5.86428 2.10255C5.86428 1.69267 5.43192 1.51933 5.15977 1.82007ZM3.48477 3.48652C3.32019 3.6511 3.36497 4.03148 3.56128 4.13658C3.92606 4.33173 4.32727 3.92259 4.13088 3.55576C4.02958 3.36639 3.64597 3.32533 3.48477 3.48652ZM6.87227 3.48652C6.70768 3.6511 6.75247 4.03148 6.94878 4.13658C7.31355 4.33173 7.71476 3.92259 7.51837 3.55576C7.41708 3.36639 7.03346 3.32533 6.87227 3.48652ZM14.4735 3.48652C14.3164 3.64358 14.353 4.03115 14.5341 4.12807C14.622 4.17508 15.1078 4.21358 15.6137 4.21358C16.1195 4.21358 16.6053 4.17508 16.6932 4.12807C16.8743 4.03115 16.9109 3.64358 16.7538 3.48652C16.6164 3.34912 14.6109 3.34912 14.4735 3.48652ZM19.501 3.54485C19.3762 3.77817 19.3934 3.92127 19.5654 4.07684C19.6883 4.18813 19.9014 4.21358 20.7093 4.21358C21.6021 4.21358 21.7173 4.19673 21.8538 4.04586C21.9741 3.91301 21.9892 3.83138 21.9268 3.65341L21.8479 3.42869L20.7178 3.40572C19.6668 3.3844 19.5817 3.39415 19.501 3.54485ZM30.3486 6.00371C30.742 6.55661 31.0639 7.02944 31.0639 7.05456C31.0639 7.11297 29.1198 8.58278 28.9628 8.64301C28.8816 8.67416 28.6099 8.33715 28.089 7.55887C27.6733 6.93782 27.3454 6.41913 27.3602 6.40632C27.7154 6.10096 29.5413 4.89123 29.5796 4.93593C29.6091 4.9703 29.9552 5.45082 30.3486 6.00371ZM5.15977 5.2075C4.94214 5.44793 5.07648 5.81443 5.39573 5.85128C5.69491 5.88581 5.86428 5.73924 5.86428 5.4457C5.86428 5.05639 5.42953 4.90941 5.15977 5.2075ZM17.9064 5.12901C17.78 5.20263 17.7618 5.35341 17.7618 6.32626C17.7618 7.42841 17.7638 7.44023 17.965 7.53186C18.1277 7.60605 18.21 7.59704 18.3781 7.48691C18.5842 7.35191 18.588 7.33043 18.588 6.3313C18.588 5.44999 18.5677 5.29491 18.4369 5.17652C18.2651 5.02094 18.115 5.00756 17.9064 5.12901ZM27.4294 8.09789C27.8518 8.73472 28.1824 9.2682 28.1641 9.28349C27.9335 9.4755 26.2049 10.7406 26.1732 10.7406C26.0953 10.7406 24.5932 8.42589 24.6404 8.37863C24.7445 8.27461 26.5648 6.95104 26.6112 6.94575C26.6388 6.94261 27.007 7.46105 27.4294 8.09789ZM10.6729 7.28705C10.5231 7.43684 10.5515 7.83168 10.7183 7.91736C10.7979 7.95826 11.0271 8.01262 11.2278 8.03815C12.3446 8.18051 12.9788 9.47467 12.4279 10.4868C11.8786 11.4962 10.6021 11.6821 9.79088 10.8709C9.49534 10.5754 9.41429 10.4217 9.30779 9.95478C9.18089 9.39825 9.08471 9.25713 8.83082 9.25465C8.5556 9.25201 8.39887 9.55299 8.45018 9.98584C8.6398 11.587 10.3302 12.6326 11.8196 12.07C12.8166 11.6935 13.4655 10.779 13.4655 9.75062C13.4655 9.4479 13.4032 9.01704 13.327 8.79305C13.1387 8.23933 12.414 7.51467 11.8603 7.32638C11.3845 7.16453 10.8142 7.14569 10.6729 7.28705ZM24.6607 10.0502C25.0697 10.6684 25.416 11.2043 25.4302 11.2413C25.4535 11.3021 23.6309 12.7235 23.5296 12.7235C23.5062 12.7235 23.0663 12.2172 22.552 11.5986C21.8357 10.7369 21.6445 10.4579 21.7343 10.406C21.7988 10.3689 22.2978 10.0215 22.8431 9.63421C23.3884 9.24688 23.8531 8.92913 23.8758 8.92814C23.8986 8.92715 24.2518 9.43204 24.6607 10.0502ZM1.00802 10.2083C0.694719 10.4276 0.780232 10.6599 1.40089 11.2758C1.93702 11.8078 1.99337 11.8422 2.20645 11.7678C2.37855 11.7076 2.44159 11.6257 2.4601 11.4381C2.48117 11.2237 2.40334 11.1099 1.91042 10.634C1.59455 10.3291 1.30364 10.0796 1.2639 10.0796C1.22416 10.0796 1.10898 10.1375 1.00802 10.2083ZM33.1479 10.2083C32.8346 10.4276 32.9201 10.6599 33.5408 11.2758C34.0769 11.8078 34.1332 11.8422 34.3463 11.7678C34.5184 11.7076 34.5815 11.6257 34.6 11.4381C34.621 11.2237 34.5432 11.1099 34.0503 10.634C33.7344 10.3291 33.4435 10.0796 33.4038 10.0796C33.364 10.0796 33.2489 10.1375 33.1479 10.2083ZM3.89301 10.6875C3.45999 11.1244 3.37695 11.2527 3.39967 11.4502C3.4195 11.623 3.48932 11.7095 3.65597 11.7678C3.86905 11.8422 3.9254 11.8078 4.46153 11.2758C5.03261 10.7091 5.14589 10.4683 4.93892 10.2614C4.71262 10.0351 4.42245 10.1533 3.89301 10.6875ZM36.0329 10.6875C35.5999 11.1244 35.5168 11.2527 35.5396 11.4502C35.5594 11.623 35.6292 11.7095 35.7958 11.7678C36.0089 11.8422 36.0653 11.8078 36.6014 11.2758C37.1725 10.7091 37.2858 10.4683 37.0788 10.2614C36.8525 10.0351 36.5623 10.1533 36.0329 10.6875ZM21.9111 12.1492L22.8431 13.2686L22.7968 20.1633C22.7518 26.8822 22.7459 27.0785 22.5688 27.8594C21.5104 32.5247 18.1994 35.9206 13.7134 36.9418C12.802 37.1492 10.9981 37.2301 10.0651 37.1053C6.01705 36.564 2.65145 33.8005 1.36189 29.959C1.03132 28.9744 0.895407 28.2064 0.847073 27.0494C0.755776 24.8649 1.20375 23.183 2.3355 21.4615C3.61631 19.5133 5.48637 18.0382 8.74646 16.4049C10.225 15.664 11.3464 15.2125 13.3948 14.5333C16.1547 13.6182 18.4142 12.5795 20.2818 11.3675C20.5999 11.1611 20.8869 11.0007 20.9196 11.011C20.9523 11.0213 21.3985 11.5335 21.9111 12.1492ZM25.3408 20.5311C25.3118 26.7675 25.3076 26.9091 25.1258 27.719C24.3539 31.1589 22.7482 33.5588 20.7036 34.3284C20.4013 34.4422 20.0983 34.5352 20.0301 34.5352C19.9572 34.5352 20.1576 34.2381 20.5179 33.8123C21.9674 32.0991 22.7914 30.4657 23.3624 28.1734L23.5786 27.3059L23.6068 20.5167L23.6352 13.7275L24.4784 13.0969L25.3217 12.4664L25.346 13.3179C25.3594 13.7862 25.357 17.0321 25.3408 20.5311ZM1.37982 13.2006C1.03719 13.5459 0.824352 13.829 0.824352 13.9395C0.824352 14.1053 1.09684 14.3759 1.2639 14.3759C1.30364 14.3759 1.59282 14.1281 1.90645 13.8253C2.49984 13.2524 2.59676 13.0205 2.34699 12.7706C2.12366 12.5474 1.95247 12.6235 1.37982 13.2006ZM3.53691 12.7441C3.24162 12.982 3.28714 13.1343 3.81931 13.6887C4.47062 14.3672 4.57687 14.4263 4.83705 14.2559C5.17679 14.0333 5.09474 13.7967 4.46773 13.1914C3.88144 12.6255 3.75792 12.5661 3.53691 12.7441ZM33.5346 13.1914C32.9179 13.7868 32.8306 14.0251 33.1479 14.2472C33.2489 14.3179 33.364 14.3759 33.4038 14.3759C33.4435 14.3759 33.7327 14.1281 34.0463 13.8253C34.4849 13.4019 34.6167 13.2212 34.6167 13.0433C34.6167 12.8214 34.4302 12.6408 34.201 12.6408C34.1481 12.6408 33.8482 12.8886 33.5346 13.1914ZM35.6553 12.7706C35.4055 13.0205 35.5025 13.2524 36.0958 13.8253C36.4095 14.1281 36.6987 14.3759 36.7384 14.3759C36.9073 14.3759 37.1779 14.1045 37.1779 13.9352C37.1779 13.7186 36.132 12.6408 35.9218 12.6408C35.8467 12.6408 35.7268 12.6993 35.6553 12.7706ZM13.5437 16.2808C13.075 16.7825 12.6393 18.0939 12.6393 19.0026C12.6393 19.5166 12.8781 20.5629 13.1049 21.0427C13.3429 21.5459 13.7201 21.9769 13.9226 21.9769C14.3543 21.9769 14.9731 20.7937 15.1398 19.65C15.309 18.4894 14.9376 16.9527 14.3328 16.3115C14.0037 15.9626 13.8467 15.9565 13.5437 16.2808ZM14.1745 17.8226C14.3839 18.4677 14.3769 19.6218 14.1599 20.2261C14.0733 20.4674 13.9689 20.6719 13.9278 20.6805C13.8867 20.6892 13.7814 20.4918 13.6936 20.2419C13.4773 19.6251 13.4652 18.4661 13.6688 17.8459C13.9094 17.113 13.9438 17.1114 14.1745 17.8226ZM30.8047 18.7141C29.9505 18.988 29.2452 19.6727 28.9147 20.5491C28.6577 21.2303 28.7095 22.1567 29.0422 22.831C29.4992 23.7573 30.5026 24.4311 31.4889 24.474C31.9126 24.4925 32.138 24.3514 32.138 24.068C32.138 23.8497 31.8141 23.6293 31.4932 23.6293C31.0743 23.6293 30.3793 23.2727 30.0695 22.899C29.7436 22.5057 29.5429 21.8202 29.6036 21.3078C29.6871 20.6029 30.1425 19.9663 30.8161 19.613C31.2374 19.3921 32.1552 19.405 32.5924 19.638C33.2835 20.0064 33.7033 20.6091 33.7732 21.333C33.8211 21.829 34.0282 22.0419 34.3506 21.9269C34.567 21.8497 34.5751 21.8254 34.5683 21.2715C34.5506 19.8412 33.3507 18.6814 31.8228 18.6177C31.4185 18.6008 31.0487 18.6358 30.8047 18.7141ZM8.15125 19.4159C7.50755 19.4967 7.44186 19.7824 7.89372 20.5359C8.27494 21.1718 8.66483 21.57 9.36067 22.0343C10.0146 22.4707 10.4989 22.6697 11.2284 22.802C12.117 22.9631 12.6402 22.7851 12.6384 22.3222C12.6375 22.0526 12.3118 21.3346 12.0127 20.9424C11.2587 19.954 9.47692 19.2496 8.15125 19.4159ZM18.712 19.4255C17.3246 19.5904 16.0114 20.4634 15.4445 21.5977C15.0673 22.3525 15.1167 22.6693 15.6334 22.8084C16.3111 22.9909 17.5117 22.676 18.4343 22.0738C19.6728 21.2653 20.6309 19.7882 20.0959 19.5121C19.8754 19.3983 19.2634 19.36 18.712 19.4255ZM9.58788 20.3729C10.4096 20.6127 11.2503 21.2113 11.5392 21.7621L11.6649 22.0017L11.2768 21.9485C10.6359 21.8607 9.86962 21.4377 9.22121 20.814C8.6379 20.2527 8.63459 20.2471 8.8856 20.2445C9.02506 20.2431 9.34109 20.3008 9.58788 20.3729ZM18.9029 20.5795C18.3612 21.2534 16.8983 22.0445 16.346 21.9621C16.1771 21.9369 16.1818 21.9188 16.4519 21.5638C16.9557 20.9015 18.1568 20.2552 18.9018 20.2455L19.1742 20.2419L18.9029 20.5795ZM13.6537 22.9064C13.4966 23.1093 13.4798 23.2825 13.6003 23.4546C13.7683 23.6944 14.0902 23.6788 14.258 23.4228C14.3833 23.2314 14.3833 23.201 14.258 23.0097C14.1121 22.787 13.7888 22.7317 13.6537 22.9064ZM2.64203 23.7946C2.55115 23.8855 2.47679 24.0224 2.47679 24.0989C2.47679 24.1754 3.0981 24.8632 3.85756 25.6273C5.26676 27.0454 5.48777 27.195 5.76514 26.9176C6.0425 26.6403 5.89295 26.4192 4.47483 25.0101C3.71066 24.2506 3.02284 23.6293 2.94633 23.6293C2.8699 23.6293 2.73292 23.7037 2.64203 23.7946ZM10.739 23.7618C9.39851 24.1205 7.60322 25.7519 7.60008 26.6142C7.59909 26.9117 7.75888 27.0196 8.28089 27.0734C9.28416 27.177 10.7343 26.6912 11.5579 25.9757C12.0532 25.5454 12.5352 24.7794 12.6055 24.3104C12.6553 23.9781 12.6392 23.9116 12.4764 23.7799C12.2443 23.5919 11.4065 23.5831 10.739 23.7618ZM15.3771 23.7577C15.2134 23.8767 15.1887 23.9511 15.2244 24.2175C15.3244 24.9624 15.9861 25.8545 16.8033 26.3456C17.6407 26.849 18.285 27.0403 19.1741 27.0497C19.7347 27.0556 20.0067 27.0249 20.1036 26.9447C20.7346 26.4221 19.0649 24.4863 17.4565 23.8755C16.795 23.6245 15.6497 23.5595 15.3771 23.7577ZM11.6478 24.5353C11.6478 24.6212 11.215 25.1456 10.9455 25.3862C10.457 25.8225 8.75604 26.4443 8.75604 26.1867C8.75604 26.0367 9.42255 25.378 9.85516 25.1004C10.5035 24.6844 11.6478 24.3237 11.6478 24.5353ZM17.5111 24.8454C17.9219 25.0437 18.3066 25.3174 18.6628 25.665C18.9569 25.952 19.1813 26.2025 19.1614 26.2217C19.07 26.3094 18.1921 26.0907 17.67 25.8501C17.2516 25.6572 16.9682 25.4498 16.6422 25.0976C16.3946 24.8301 16.192 24.573 16.192 24.5262C16.192 24.3725 16.8723 24.5372 17.5111 24.8454ZM13.5313 24.7654C12.8923 25.4473 12.528 26.9599 12.714 28.1591C12.8852 29.2617 13.4378 30.328 13.8706 30.3905C14.4498 30.474 15.1948 28.8097 15.1991 27.4224C15.2009 26.8564 14.9514 25.8487 14.6762 25.3103C14.2693 24.5141 13.9218 24.3487 13.5313 24.7654ZM14.3091 26.9388C14.4028 27.5701 14.2974 28.4087 14.0555 28.9553L13.9107 29.2827L13.7728 28.9384C13.4253 28.0696 13.4248 26.8739 13.7718 26.0067L13.9111 25.6583L14.0688 26.0197C14.1555 26.2185 14.2636 26.6321 14.3091 26.9388ZM32.2372 28.0247C32.0998 28.1621 32.0998 30.1676 32.2372 30.305C32.3942 30.4621 32.7818 30.4255 32.8787 30.2444C33.0016 30.0148 32.9901 28.1497 32.8651 28.0247C32.8106 27.9702 32.6693 27.9256 32.5511 27.9256C32.433 27.9256 32.2917 27.9702 32.2372 28.0247ZM4.31099 28.8509C4.02611 29.1358 4.17037 29.3293 6.09149 31.2388C8.16414 33.2989 8.37855 33.4496 9.47419 33.6178C9.80096 33.6679 10.4144 33.71 10.8375 33.7111C12.6303 33.7161 13.692 33.9279 14.3182 34.4056C14.6984 34.6956 15.0399 34.6727 15.1529 34.3497C15.2207 34.1558 15.1991 34.0882 15.0038 33.8845C14.3735 33.2266 13.4899 32.9934 11.2036 32.8815C9.6111 32.8036 9.0862 32.727 8.6854 32.5141C8.56519 32.4504 7.64924 31.5776 6.64993 30.575C4.79251 28.7112 4.59571 28.5662 4.31099 28.8509ZM28.9984 31.3368C28.7491 31.4623 28.6847 31.8137 28.8759 32.0049C28.9843 32.1133 29.1932 32.1392 29.9599 32.1392C31.0731 32.1392 31.2292 32.0827 31.2292 31.6798C31.2292 31.4464 31.1889 31.3762 31.0172 31.3109C30.7086 31.1936 29.2457 31.2124 28.9984 31.3368ZM34.1209 31.2877C33.9635 31.344 33.7904 31.5601 33.7904 31.7006C33.7904 31.7601 33.8648 31.8831 33.9557 31.974C34.1016 32.1199 34.2311 32.1392 35.0619 32.1392C35.851 32.1392 36.0331 32.1148 36.1898 31.9879C36.4324 31.7915 36.3596 31.4259 36.0549 31.3101C35.8372 31.2273 34.3384 31.21 34.1209 31.2877ZM32.2826 33.0546C32.1568 33.1279 32.1382 33.2752 32.1393 34.1882C32.14 34.7653 32.1678 35.2774 32.2012 35.3261C32.3185 35.4974 32.5725 35.5316 32.7693 35.4027C32.9566 35.2799 32.9642 35.2355 32.9642 34.2569C32.9642 33.3756 32.9439 33.2205 32.8131 33.1021C32.6413 32.9466 32.4912 32.9332 32.2826 33.0546Z" fill="#AC1B64"/>
<path d="M53.666 16.066C53.9087 16.3953 54.3593 16.8547 55.018 17.444C55.746 18.0853 56.2313 18.5793 56.474 18.926C56.9247 19.5327 57.15 20.1133 57.15 20.668V25.894C57.15 25.946 57.15 26.024 57.15 26.128C57.1673 26.232 57.176 26.31 57.176 26.362C57.176 26.414 57.176 26.4833 57.176 26.57C57.1933 26.6393 57.202 26.7 57.202 26.752C57.2193 26.7867 57.228 26.8387 57.228 26.908C57.2453 26.96 57.2627 27.0033 57.28 27.038C57.2973 27.0727 57.3147 27.1073 57.332 27.142C57.3493 27.1767 57.3667 27.2113 57.384 27.246C57.4013 27.2633 57.4273 27.272 57.462 27.272C57.7913 27.4107 57.956 27.5407 57.956 27.662C57.956 27.8873 57.8433 28 57.618 28H50.338C50.1127 28 50 27.8873 50 27.662C50 27.454 50.104 27.324 50.312 27.272C50.6413 27.168 50.806 26.7087 50.806 25.894V12.244C50.806 11.308 51.1267 10.5193 51.768 9.878C52.4267 9.21933 53.224 8.89 54.16 8.89C55.0787 8.89 55.8673 9.21933 56.526 9.878C57.1847 10.5367 57.514 11.334 57.514 12.27C57.514 13.0847 57.28 13.6913 56.812 14.09C56.656 14.2287 56.1187 14.506 55.2 14.922C54.4893 15.234 53.978 15.6153 53.666 16.066ZM53.224 15.52L54.264 14.636C54.6627 14.2373 54.862 13.8213 54.862 13.388V10.554C54.862 9.94733 54.498 9.644 53.77 9.644C53.198 9.644 52.912 9.94733 52.912 10.554V12.868C52.912 14.2893 53.016 15.1733 53.224 15.52ZM52.938 25.894C52.938 26.414 52.9813 26.778 53.068 26.986C53.2067 27.2287 53.51 27.35 53.978 27.35C54.446 27.35 54.7493 27.2287 54.888 26.986C54.9747 26.778 55.018 26.414 55.018 25.894V20.668C55.018 19.68 54.8533 18.8913 54.524 18.302L52.938 16.508V25.894ZM61.7305 7.044C61.7305 6.22933 62.1378 5.822 62.9525 5.822C63.7671 5.822 64.1745 6.22933 64.1745 7.044C64.1745 7.876 63.7671 8.292 62.9525 8.292C62.1378 8.292 61.7305 7.876 61.7305 7.044ZM64.4865 9.228C64.6945 9.228 64.7985 9.36667 64.7985 9.644C64.7985 9.78267 64.7031 9.878 64.5125 9.93C64.2005 10.0167 64.0445 10.4847 64.0445 11.334V25.894C64.0445 26.7433 64.2005 27.2027 64.5125 27.272C64.7031 27.324 64.7985 27.428 64.7985 27.584C64.7985 27.8613 64.6945 28 64.4865 28H61.4445C61.2018 28 61.0805 27.8873 61.0805 27.662C61.0805 27.454 61.1931 27.324 61.4185 27.272C61.7305 27.2027 61.8865 26.7433 61.8865 25.894V11.334C61.8865 10.4847 61.7305 10.0167 61.4185 9.93C61.1931 9.878 61.0805 9.75667 61.0805 9.566C61.0805 9.34067 61.2018 9.228 61.4445 9.228H64.4865ZM75.7207 9.228C75.9634 9.228 76.0847 9.34067 76.0847 9.566C76.0847 9.75667 75.9807 9.878 75.7727 9.93C75.5127 9.99933 75.3567 10.4673 75.3047 11.334V25.92C75.3047 26.7867 75.4607 27.2547 75.7727 27.324C75.9807 27.376 76.0847 27.506 76.0847 27.714C76.0847 27.9047 75.9634 28 75.7207 28H72.7047C72.462 28 72.3407 27.9047 72.3407 27.714C72.3407 27.506 72.4447 27.376 72.6527 27.324C72.9994 27.2373 73.1727 26.7693 73.1727 25.92V14.22C71.6127 16.4733 70.8327 18.458 70.8327 20.174V25.894C70.8327 26.7607 70.9974 27.2373 71.3267 27.324C71.5347 27.376 71.6387 27.506 71.6387 27.714C71.6387 27.9047 71.526 28 71.3007 28H68.2587C68.0334 28 67.9207 27.87 67.9207 27.61C67.9207 27.4713 68.0247 27.376 68.2327 27.324C68.5447 27.22 68.7007 26.7433 68.7007 25.894V20.174C68.7007 19.8967 68.718 19.6367 68.7527 19.394C68.8047 19.134 68.848 18.9087 68.8827 18.718C68.9347 18.5273 69.0214 18.302 69.1427 18.042C69.2814 17.782 69.3854 17.5913 69.4547 17.47C69.524 17.3313 69.6627 17.1233 69.8707 16.846C70.096 16.5513 70.2434 16.352 70.3127 16.248C70.3994 16.144 70.5814 15.9187 70.8587 15.572C71.1534 15.2253 71.3527 14.9913 71.4567 14.87C71.9594 14.2633 72.2974 13.8387 72.4707 13.596C72.644 13.336 72.8 13.0153 72.9387 12.634C73.0947 12.2527 73.1727 11.828 73.1727 11.36C73.1727 10.9613 72.904 10.606 72.3667 10.294C71.8467 9.982 71.37 9.826 70.9367 9.826C70.486 9.826 70.122 9.96467 69.8447 10.242C70.0007 10.1727 70.1567 10.138 70.3127 10.138C70.6074 10.138 70.85 10.268 71.0407 10.528C71.2487 10.788 71.3527 11.0827 71.3527 11.412C71.3527 12.244 70.9454 12.66 70.1307 12.66C69.212 12.66 68.7527 12.1227 68.7527 11.048C68.7527 10.4587 68.9954 9.956 69.4807 9.54C69.966 9.10667 70.512 8.89 71.1187 8.89C71.916 8.89 72.6007 9.15 73.1727 9.67V9.228H75.7207ZM84.2223 20.668C84.2223 19.9573 84.127 19.4547 83.9363 19.16C83.8843 19.0907 83.6243 18.9 83.1563 18.588C82.7056 18.2587 82.3676 17.9553 82.1423 17.678V25.92C82.1423 26.856 82.333 27.324 82.7143 27.324H83.7283C84.0576 27.324 84.2223 26.856 84.2223 25.92V20.668ZM87.1603 27.688C87.1603 27.896 87.0476 28 86.8223 28H79.5423C79.317 28 79.2043 27.87 79.2043 27.61C79.2043 27.4367 79.3083 27.324 79.5163 27.272C79.8283 27.2027 79.9843 26.752 79.9843 25.92V11.308C79.9843 10.4413 79.8283 9.97333 79.5163 9.904C79.3083 9.86933 79.2043 9.79133 79.2043 9.67C79.2043 9.37533 79.317 9.228 79.5423 9.228H82.5843C82.8096 9.228 82.9223 9.332 82.9223 9.54C82.9223 9.748 82.8183 9.86933 82.6103 9.904C82.2983 9.97333 82.1423 10.4413 82.1423 11.308V13.882C82.593 13.4313 83.113 13.206 83.7023 13.206C84.3956 13.206 84.9503 13.388 85.3663 13.752C85.7996 14.0987 86.0163 14.584 86.0163 15.208C86.0163 15.6587 85.8776 16.04 85.6003 16.352C85.3403 16.664 85.0023 16.82 84.5863 16.82C83.7716 16.82 83.3643 16.4213 83.3643 15.624C83.3643 15.26 83.4683 14.9653 83.6763 14.74C83.8843 14.4973 84.1183 14.376 84.3783 14.376C84.517 14.376 84.621 14.3933 84.6903 14.428C84.777 14.4453 84.8636 14.4887 84.9503 14.558C85.0543 14.61 85.1323 14.6533 85.1843 14.688C85.063 14.0987 84.5863 13.804 83.7543 13.804C82.7316 13.804 82.2203 14.4367 82.2203 15.702C82.2203 16.014 82.2723 16.3087 82.3763 16.586C82.4803 16.846 82.5756 17.054 82.6623 17.21C82.749 17.366 82.9396 17.5393 83.2343 17.73C83.529 17.9033 83.7196 18.016 83.8063 18.068C83.893 18.12 84.1443 18.2413 84.5603 18.432C84.9936 18.6053 85.2363 18.7007 85.2883 18.718C85.999 19.134 86.3543 19.784 86.3543 20.668V25.92C86.3543 26.752 86.5103 27.2027 86.8223 27.272C87.0476 27.324 87.1603 27.4627 87.1603 27.688ZM93.2228 16.482H95.3028V11.308C95.3028 10.4413 95.1641 9.982 94.8868 9.93C94.6268 9.878 94.4968 9.748 94.4968 9.54C94.4968 9.332 94.6094 9.228 94.8348 9.228H97.9028C98.1281 9.228 98.2408 9.332 98.2408 9.54C98.2408 9.76533 98.1281 9.88667 97.9028 9.904C97.5908 9.97333 97.4348 10.4413 97.4348 11.308V25.92C97.4348 26.752 97.5908 27.2027 97.9028 27.272C98.1281 27.324 98.2408 27.4627 98.2408 27.688C98.2408 27.896 98.1281 28 97.9028 28H94.8348C94.6094 28 94.4968 27.896 94.4968 27.688C94.4968 27.4973 94.6094 27.3673 94.8348 27.298C95.0428 27.194 95.1728 27.0553 95.2248 26.882C95.2768 26.7087 95.3028 26.388 95.3028 25.92V17.158H93.2228V25.92C93.2228 26.752 93.3788 27.2027 93.6908 27.272C93.8988 27.324 94.0028 27.4627 94.0028 27.688C94.0028 27.896 93.8901 28 93.6648 28H90.6228C90.3974 28 90.2848 27.87 90.2848 27.61C90.2848 27.4367 90.3888 27.324 90.5968 27.272C90.8741 27.2027 91.0388 26.752 91.0908 25.92V11.308C91.0908 10.4413 90.9261 9.97333 90.5968 9.904C90.3888 9.86933 90.2848 9.774 90.2848 9.618C90.2848 9.358 90.3974 9.228 90.6228 9.228H93.6648C93.8901 9.228 94.0028 9.332 94.0028 9.54C94.0028 9.748 93.8988 9.86933 93.6908 9.904C93.3788 9.97333 93.2228 10.4413 93.2228 11.308V16.482ZM101.703 28C101.478 28 101.365 27.8613 101.365 27.584C101.365 27.4627 101.469 27.376 101.677 27.324C102.007 27.2373 102.171 26.7607 102.171 25.894V11.334C102.171 10.4847 102.007 10.0167 101.677 9.93C101.469 9.878 101.365 9.76533 101.365 9.592C101.365 9.34933 101.478 9.228 101.703 9.228H108.983C109.226 9.228 109.347 9.32333 109.347 9.514C109.347 9.80867 109.191 9.982 108.879 10.034C108.151 10.138 107.562 10.4413 107.111 10.944C106.609 11.516 106.357 12.166 106.357 12.894C106.357 13.5007 106.756 13.8127 107.553 13.83C106.999 13.7953 106.721 13.4313 106.721 12.738C106.721 11.9407 107.085 11.542 107.813 11.542C108.801 11.542 109.295 12.0533 109.295 13.076C109.295 13.5093 109.131 13.856 108.801 14.116C108.472 14.376 108.065 14.506 107.579 14.506C107.059 14.506 106.617 14.3153 106.253 13.934C105.907 13.5527 105.733 13.0933 105.733 12.556C105.733 12.2787 105.82 11.9147 105.993 11.464C106.184 10.9787 106.279 10.606 106.279 10.346C106.279 10.294 106.236 10.216 106.149 10.112C106.08 9.99067 106.002 9.93 105.915 9.93H104.771C104.459 9.93 104.303 10.398 104.303 11.334V16.508C105.014 15.728 105.785 15.338 106.617 15.338C107.501 15.338 108.091 15.7973 108.385 16.716C108.42 16.82 108.455 17.002 108.489 17.262C108.524 17.5047 108.559 17.7127 108.593 17.886C108.645 18.0593 108.706 18.172 108.775 18.224L109.061 18.302C109.165 18.3367 109.217 18.3973 109.217 18.484C109.217 18.64 109.096 18.718 108.853 18.718H105.993C105.751 18.718 105.629 18.64 105.629 18.484C105.629 18.3973 105.751 18.3107 105.993 18.224C106.236 18.12 106.357 17.99 106.357 17.834C106.357 17.314 106.132 17.054 105.681 17.054C105.196 17.054 104.737 17.2707 104.303 17.704V25.894C104.303 26.8647 104.494 27.35 104.875 27.35H105.993C106.565 27.3153 107.068 27.0987 107.501 26.7C107.952 26.284 108.177 25.8073 108.177 25.27C108.177 24.49 107.874 24.1 107.267 24.1L106.981 24.126C107.501 24.178 107.761 24.5507 107.761 25.244C107.761 25.9893 107.423 26.362 106.747 26.362C105.811 26.362 105.343 25.8593 105.343 24.854C105.343 24.4033 105.508 24.048 105.837 23.788C106.184 23.5107 106.6 23.372 107.085 23.372C107.588 23.372 108.013 23.5713 108.359 23.97C108.706 24.3513 108.879 24.8107 108.879 25.348C108.879 26.2147 108.819 27.0987 108.697 28H101.703ZM125.341 10.554C125.341 9.94733 125.012 9.644 124.353 9.644C123.712 9.644 123.391 9.94733 123.391 10.554V19.654C123.703 19.3593 124.076 19.0907 124.509 18.848C124.891 18.64 125.125 18.406 125.211 18.146C125.298 17.886 125.341 17.444 125.341 16.82V10.554ZM127.759 16.82C127.759 17.6867 127.395 18.2933 126.667 18.64C126.546 18.692 126.295 18.8047 125.913 18.978C125.549 19.134 125.307 19.2467 125.185 19.316C125.081 19.368 124.891 19.4807 124.613 19.654C124.353 19.81 124.18 19.9573 124.093 20.096C124.007 20.2173 123.894 20.3907 123.755 20.616C123.617 20.8413 123.521 21.0927 123.469 21.37C123.435 21.6473 123.417 21.9593 123.417 22.306C123.417 22.6873 123.565 22.9993 123.859 23.242C124.171 23.4847 124.527 23.606 124.925 23.606C125.792 23.606 126.26 23.3373 126.329 22.8C126.243 22.956 126.156 23.06 126.069 23.112C126 23.164 125.87 23.19 125.679 23.19C125.419 23.19 125.159 23.0687 124.899 22.826C124.657 22.566 124.535 22.254 124.535 21.89C124.535 21.526 124.648 21.2313 124.873 21.006C125.099 20.7807 125.393 20.668 125.757 20.668C126.173 20.668 126.511 20.824 126.771 21.136C127.031 21.448 127.161 21.8207 127.161 22.254C127.161 22.8607 126.936 23.3547 126.485 23.736C126.052 24.1173 125.506 24.308 124.847 24.308C124.31 24.308 123.833 24.1 123.417 23.684V25.894C123.417 26.778 123.573 27.2547 123.885 27.324C124.093 27.376 124.197 27.506 124.197 27.714C124.197 27.9047 124.085 28 123.859 28H120.817C120.592 28 120.479 27.87 120.479 27.61C120.479 27.4713 120.583 27.376 120.791 27.324C121.103 27.22 121.259 26.7433 121.259 25.894V12.244C121.259 11.3253 121.589 10.5367 122.247 9.878C122.906 9.21933 123.703 8.89 124.639 8.89C125.558 8.89 126.303 9.18467 126.875 9.774C127.465 10.3633 127.759 11.1173 127.759 12.036V16.82ZM138.674 9.228C138.917 9.228 139.038 9.34067 139.038 9.566C139.038 9.75667 138.934 9.878 138.726 9.93C138.414 10.0167 138.258 10.4847 138.258 11.334V25.894C138.258 26.7433 138.414 27.2027 138.726 27.272C138.934 27.324 139.038 27.454 139.038 27.662C139.038 27.8873 138.917 28 138.674 28H135.658C135.416 28 135.294 27.8873 135.294 27.662C135.294 27.4713 135.407 27.3413 135.632 27.272C135.962 27.1333 136.126 26.674 136.126 25.894V23.788H133.786V25.894C133.786 26.726 133.951 27.1853 134.28 27.272C134.488 27.324 134.592 27.454 134.592 27.662C134.592 27.8873 134.48 28 134.254 28H131.212C130.987 28 130.874 27.8527 130.874 27.558C130.874 27.4193 130.978 27.324 131.186 27.272C131.498 27.2027 131.654 26.7433 131.654 25.894V21.318C131.654 19.9487 131.793 18.9347 132.07 18.276C132.4 17.4787 133.171 16.3433 134.384 14.87C135.06 14.0727 135.52 13.4487 135.762 12.998C136.005 12.5473 136.126 11.9927 136.126 11.334C136.126 10.8313 135.91 10.45 135.476 10.19C135.043 9.91267 134.523 9.774 133.916 9.774C133.483 9.774 133.119 9.93 132.824 10.242C132.98 10.1727 133.136 10.138 133.292 10.138C133.587 10.138 133.83 10.2593 134.02 10.502C134.211 10.7447 134.306 11.0307 134.306 11.36C134.306 12.2267 133.899 12.66 133.084 12.66C132.166 12.66 131.706 12.1227 131.706 11.048C131.706 10.4587 131.949 9.956 132.434 9.54C132.92 9.10667 133.474 8.89 134.098 8.89C134.878 8.89 135.554 9.14133 136.126 9.644V9.228H138.674ZM136.126 23.112V14.194C134.566 16.4647 133.786 18.4493 133.786 20.148V23.112H136.126ZM153.52 27.636C153.52 27.8613 153.407 27.9827 153.182 28C152.558 28.0693 152.064 28.468 151.7 29.196C151.336 29.9413 151.154 30.678 151.154 31.406C151.154 31.6313 151.058 31.744 150.868 31.744C150.677 31.744 150.582 31.6313 150.582 31.406V28H145.096V31.406C145.096 31.6313 145 31.744 144.81 31.744C144.636 31.744 144.541 31.6313 144.524 31.406C144.437 30.626 144.22 29.8807 143.874 29.17C143.527 28.4767 143.059 28.0867 142.47 28C142.262 27.9653 142.158 27.8787 142.158 27.74C142.158 27.48 142.314 27.35 142.626 27.35H143.796C144.073 27.35 144.281 27.2113 144.42 26.934C144.576 26.6393 144.654 26.2927 144.654 25.894V20.226C144.654 19.3073 144.948 18.3713 145.538 17.418C145.763 17.0713 146.387 16.248 147.41 14.948C147.462 14.8787 147.592 14.7227 147.8 14.48C148.008 14.22 148.146 14.0467 148.216 13.96C148.285 13.856 148.389 13.6913 148.528 13.466C148.684 13.2233 148.788 13.0153 148.84 12.842C148.909 12.6687 148.97 12.452 149.022 12.192C149.074 11.932 149.1 11.6633 149.1 11.386C149.1 10.9873 148.84 10.632 148.32 10.32C147.8 9.99067 147.323 9.826 146.89 9.826C146.474 9.826 146.118 9.97333 145.824 10.268C145.997 10.1813 146.153 10.138 146.292 10.138C146.586 10.138 146.829 10.2767 147.02 10.554C147.228 10.814 147.332 11.1087 147.332 11.438C147.332 11.802 147.219 12.1053 146.994 12.348C146.768 12.5733 146.474 12.686 146.11 12.686C145.191 12.686 144.732 12.1573 144.732 11.1C144.732 10.4933 144.974 9.97333 145.46 9.54C145.945 9.10667 146.5 8.89 147.124 8.89C147.817 8.89 148.476 9.15 149.1 9.67V9.228H151.7C151.925 9.228 152.038 9.332 152.038 9.54C152.038 9.78267 151.925 9.91267 151.7 9.93C151.388 10.0167 151.232 10.4847 151.232 11.334V25.894C151.232 26.8647 151.388 27.35 151.7 27.35H153.104C153.381 27.402 153.52 27.4973 153.52 27.636ZM148.528 27.35C148.909 27.35 149.1 26.8647 149.1 25.894V14.272C147.557 16.4907 146.786 18.4753 146.786 20.226V25.894C146.786 26.8647 146.976 27.35 147.358 27.35H148.528ZM157.291 7.044C157.291 6.22933 157.698 5.822 158.513 5.822C159.327 5.822 159.735 6.22933 159.735 7.044C159.735 7.876 159.327 8.292 158.513 8.292C157.698 8.292 157.291 7.876 157.291 7.044ZM160.047 9.228C160.255 9.228 160.359 9.36667 160.359 9.644C160.359 9.78267 160.263 9.878 160.073 9.93C159.761 10.0167 159.605 10.4847 159.605 11.334V25.894C159.605 26.7433 159.761 27.2027 160.073 27.272C160.263 27.324 160.359 27.428 160.359 27.584C160.359 27.8613 160.255 28 160.047 28H157.005C156.762 28 156.641 27.8873 156.641 27.662C156.641 27.454 156.753 27.324 156.979 27.272C157.291 27.2027 157.447 26.7433 157.447 25.894V11.334C157.447 10.4847 157.291 10.0167 156.979 9.93C156.753 9.878 156.641 9.75667 156.641 9.566C156.641 9.34067 156.762 9.228 157.005 9.228H160.047ZM168.837 8.89L168.863 8.994L168.785 9.358C168.733 9.60067 168.707 9.826 168.707 10.034C168.776 10.918 169.192 12.5213 169.955 14.844C170.648 16.976 170.995 18.5013 170.995 19.42C170.995 21.2053 170.57 22.8953 169.721 24.49C168.716 26.466 167.372 27.6793 165.691 28.13V27.454C165.691 26.5873 165.318 24.9753 164.573 22.618C163.845 20.226 163.481 18.3453 163.481 16.976C163.481 15.312 163.923 13.7 164.807 12.14C165.847 10.3373 167.19 9.254 168.837 8.89ZM165.171 15.104C165.171 16.664 165.665 18.9693 166.653 22.02C166.965 23.0253 167.234 24.4987 167.459 26.44C167.84 26.0413 168.196 25.3653 168.525 24.412C168.872 23.4413 169.045 22.6613 169.045 22.072C169.045 20.408 168.49 18.094 167.381 15.13C166.948 14.0033 166.731 12.6947 166.731 11.204V11.022C166.332 11.282 165.96 11.932 165.613 12.972C165.318 13.908 165.171 14.6187 165.171 15.104Z" fill="#AC1B64"/>
</svg>
