<svg width="32" height="27" viewBox="0 0 32 27" fill="none" xmlns="http://www.w3.org/2000/svg">
<path fill-rule="evenodd" clip-rule="evenodd" d="M28.7768 0.0793965C28.61 0.12807 26.3312 1.00912 23.7128 2.03739C21.0944 3.06565 15.145 5.40142 10.4919 7.22799C5.83886 9.0545 1.85846 10.6355 1.64669 10.7414C1.22768 10.9507 0.79667 11.3415 0.639171 11.6549C0.48234 11.9669 0.455534 12.4085 0.571611 12.7681C0.696785 13.1559 1.15642 13.6246 1.63759 13.855C1.82105 13.9429 3.24502 14.3904 4.80193 14.8495L7.63265 15.6841L9.15863 20.1771C10.1664 23.1443 10.7558 24.791 10.8942 25.0261C11.1521 25.4639 11.5672 25.852 12.0081 26.0673C12.2988 26.2093 12.4195 26.2301 12.9481 26.2297C13.4549 26.2294 13.6069 26.205 13.8725 26.0818C14.3723 25.8501 14.6125 25.6476 16.4361 23.9213C17.3787 23.0289 18.1718 22.2988 18.1984 22.2988C18.225 22.2988 19.3467 23.2108 20.6911 24.3255C22.0353 25.4402 23.2681 26.4442 23.4305 26.5566C24.0916 27.0144 25.0758 27.1347 25.7273 26.8375C26.2702 26.5899 26.7952 25.9744 27.019 25.3233C27.0717 25.17 28.102 20.0461 29.3086 13.937C31.3025 3.84218 31.5023 2.77535 31.5 2.23657C31.4956 1.22834 31.1604 0.612997 30.4077 0.231782C29.9372 -0.00653109 29.2817 -0.06781 28.7768 0.0793965ZM29.644 1.93704C29.684 1.97823 29.7168 2.09779 29.7168 2.20269C29.7168 2.52968 25.3511 24.5955 25.2416 24.8218C24.9597 25.4045 24.8154 25.3341 22.6938 23.5786C16.8927 18.7784 15.4953 17.6071 15.4953 17.5452C15.4953 17.5073 17.6103 15.1658 20.1953 12.3418C22.7804 9.5179 24.9455 7.12865 25.0066 7.03236C25.152 6.80347 25.1513 6.35093 25.0052 6.08896C24.8838 5.87112 24.4468 5.60629 24.2089 5.60629C24.0541 5.60629 23.354 5.96834 14.1448 10.8111L8.24579 13.9131L5.51822 13.1138C4.01802 12.6742 2.79084 12.3005 2.79108 12.2833C2.79139 12.2661 4.54461 11.5656 6.68724 10.7264C8.82987 9.88725 11.8246 8.7126 13.3423 8.11603C14.86 7.51947 16.9477 6.69895 17.9818 6.29264C20.1699 5.43281 29.037 1.95683 29.171 1.90628C29.3335 1.84506 29.5695 1.86041 29.644 1.93704ZM19.6703 10.1772C18.4535 11.4834 13.3816 17.0643 13.3151 17.1703C13.2681 17.2453 12.9514 18.472 12.6115 19.8964C12.2715 21.3207 11.9762 22.5188 11.9552 22.5588C11.9343 22.5989 11.3641 21.001 10.6881 19.0081C10.0122 17.0151 9.46635 15.3791 9.47521 15.3725C9.50529 15.3499 15.3054 12.3029 17.4966 11.1585C18.6974 10.5314 19.7058 9.9944 19.7375 9.96513C19.7691 9.93593 19.8226 9.91203 19.8562 9.91203C19.8899 9.91203 19.8062 10.0313 19.6703 10.1772ZM15.7235 20.2047C16.2817 20.6661 16.7364 21.0592 16.7338 21.0784C16.7268 21.1299 13.5163 24.1524 13.4938 24.1287C13.4832 24.1176 13.7167 23.0976 14.0128 21.862C14.3088 20.6265 14.5666 19.5504 14.5857 19.4707C14.6047 19.391 14.6401 19.3349 14.6644 19.3459C14.6886 19.357 15.1652 19.7434 15.7235 20.2047Z" fill="#28BCC6"/>
</svg>
