<svg width="33" height="30" viewBox="0 0 33 30" fill="none" xmlns="http://www.w3.org/2000/svg">
<path d="M32.1599 0.583842C31.8217 0.296152 31.4122 0.105831 30.9749 0.0331079C30.5376 -0.0396149 30.0889 0.00797838 29.6764 0.170829L1.55026 11.261C1.05693 11.4497 0.639062 11.796 0.360999 12.2465C0.0829365 12.697 -0.0399032 13.2269 0.0113948 13.7544C0.0571609 14.2817 0.271958 14.7799 0.623576 15.1742C0.975193 15.5686 1.44468 15.8379 1.96164 15.9418L9.10744 17.3644V26.3283C9.10719 26.8132 9.25042 27.2873 9.51898 27.6904C9.78753 28.0935 10.1693 28.4074 10.6158 28.5922C10.9114 28.7116 11.2267 28.7739 11.5452 28.7758C11.8654 28.7769 12.1826 28.7139 12.4782 28.5905C12.7739 28.467 13.042 28.2856 13.2669 28.0568L17.2284 24.095L23.2162 29.3877C23.6583 29.7791 24.2266 29.9965 24.816 29.9995C25.0752 30.0049 25.3333 29.9634 25.5778 29.8772C25.9799 29.7494 26.3418 29.5186 26.6277 29.2073C26.9137 28.8961 27.1137 28.5154 27.2081 28.1027L32.937 2.98544C33.0371 2.55203 33.0177 2.09941 32.8807 1.67626C32.7438 1.25311 32.4946 0.875434 32.1599 0.583842V0.583842ZM10.0369 15.0546L2.4492 13.5402L23.719 5.14228L10.0369 15.0546ZM11.5452 26.3283V19.0776L15.3848 22.4735L11.5452 26.3283ZM24.8313 27.5521L12.2766 16.4619L30.362 3.35256L24.8313 27.5521Z" fill="#28BCC6"/>
</svg>
